<svg width="96" height="128" viewBox="0 0 96 128" fill="none" xmlns="http://www.w3.org/2000/svg">
<path d="M26.6334 62.6915L22.0364 85.6812C21.8088 86.818 22.6766 87.8784 23.8337 87.8784H34.0569V64.0023C33.2241 64.3593 32.3076 64.5577 31.3454 64.5577C29.5253 64.5577 27.8689 63.8481 26.6334 62.6915Z" fill="#282828"/>
<path d="M72.9636 85.8635L68.3491 62.7861C67.125 63.8871 65.5089 64.5584 63.7383 64.5584C62.7434 64.5584 61.798 64.3448 60.9424 63.9641V88.0616H71.1663C72.3234 88.0616 73.1912 87.0003 72.9636 85.8635Z" fill="#282828"/>
<path d="M63.8814 61.5998C66.0296 61.5242 67.7012 59.6901 67.7012 57.5363V28.4554C67.7012 28.4485 67.7012 28.4424 67.7012 28.4355C67.6753 23.2933 63.4163 19.085 58.1783 19.085C55.7653 19.085 39.3183 19.085 36.906 19.085C31.6475 19.085 27.4083 23.3116 27.3832 28.4355V28.4554V57.631C27.3832 59.8114 29.1424 61.6021 31.3453 61.6021C33.5293 61.6021 35.3075 59.8297 35.3075 57.631V28.7201C35.3075 27.7817 36.0695 27.0226 37.0058 27.0272V95.2347C37.0058 97.8615 39.1296 100 41.7603 100C44.3919 100 46.5157 97.8623 46.5157 95.2347C46.5157 94.5732 46.5157 58.4557 46.5157 57.1427H48.4842V95.2347C48.4842 97.8562 50.6065 100 53.2388 100C55.8695 100 57.9934 97.8623 57.9934 95.2347C57.9934 91.5116 57.9934 27.0272 57.9934 27.0272C58.9799 27.0333 59.7769 27.8366 59.7769 28.8254L59.7761 57.631C59.7761 59.8732 61.6274 61.6799 63.8814 61.5998ZM47.4999 36.8576C44.9224 36.8576 42.8337 34.7634 42.8337 32.1808C42.8337 29.5975 44.9224 27.504 47.4999 27.504C50.0767 27.504 52.1662 29.5975 52.1662 32.1808C52.1662 34.7634 50.0767 36.8576 47.4999 36.8576Z" fill="#282828"/>
<path d="M47.5419 16.4612C52.0315 16.4612 55.7539 12.8151 55.7539 8.23059C55.7539 3.685 52.0772 0 47.5419 0C43.0065 0 39.3298 3.685 39.3298 8.23059C39.3298 12.8181 43.056 16.4612 47.5419 16.4612Z" fill="#282828"/>
<path d="M4.46154 4H2C0.89543 4 0 3.10457 0 2C0 0.895431 0.895429 0 2 0H19.1538C20.2584 0 21.1538 0.895431 21.1538 2C21.1538 3.10457 20.2584 4 19.1538 4H16.6923C14.4832 4 12.6923 5.79086 12.6923 8V92C12.6923 94.2091 14.4832 96 16.6923 96H19.1538C20.2584 96 21.1538 96.8954 21.1538 98C21.1538 99.1046 20.2584 100 19.1538 100H8.46154H2C0.89543 100 0 99.1046 0 98C0 96.8954 0.895432 96 2 96H4.46154C6.67068 96 8.46154 94.2091 8.46154 92V8C8.46154 5.79086 6.67068 4 4.46154 4Z" fill="#F32556"/>
<path d="M57 107H55.7822C56.5519 108.326 57 109.86 57 111.5C57 116.463 52.9627 120.5 48 120.5C43.0373 120.5 39 116.463 39 111.5C39 109.86 39.4481 108.326 40.2178 107H39C37.3458 107 36 108.346 36 110V125C36 126.654 37.3458 128 39 128H57C58.6542 128 60 126.654 60 125V110C60 108.346 58.6542 107 57 107ZM48 119C52.1423 119 55.5 115.642 55.5 111.5C55.5 107.358 52.1423 104 48 104C43.8577 104 40.5 107.358 40.5 111.5C40.5 115.642 43.8577 119 48 119ZM47.9859 111.878L49.56 108.205C49.7241 107.822 50.1666 107.646 50.5458 107.81C50.9264 107.974 51.1027 108.415 50.94 108.795L49.3617 112.477C49.6748 112.812 49.875 113.255 49.875 113.75C49.875 114.785 49.0355 115.625 48 115.625C46.9645 115.625 46.125 114.785 46.125 113.75C46.125 112.72 46.9575 111.886 47.9859 111.878Z" fill="#F32556"/>
</svg>
