<svg width="82" height="121" viewBox="0 0 82 121" fill="none" xmlns="http://www.w3.org/2000/svg">
<path d="M35.6334 83.6915L31.0364 106.681C30.8088 107.818 31.6766 108.878 32.8337 108.878H43.0569V85.0023C42.2241 85.3593 41.3076 85.5577 40.3454 85.5577C38.5253 85.5577 36.8689 84.8481 35.6334 83.6915Z" fill="#282828"/>
<path d="M81.9636 106.864L77.3491 83.7861C76.125 84.8871 74.5089 85.5584 72.7383 85.5584C71.7434 85.5584 70.798 85.3448 69.9424 84.9641V109.062H80.1663C81.3234 109.062 82.1912 108 81.9636 106.864V106.864Z" fill="#282828"/>
<path d="M72.8814 82.5998C75.0296 82.5242 76.7012 80.6901 76.7012 78.5363V49.4554C76.7012 49.4485 76.7012 49.4424 76.7012 49.4355C76.6753 44.2933 72.4163 40.085 67.1783 40.085C64.7653 40.085 48.3183 40.085 45.906 40.085C40.6475 40.085 36.4083 44.3116 36.3832 49.4355V49.4554V78.631C36.3832 80.8114 38.1424 82.6021 40.3453 82.6021C42.5293 82.6021 44.3075 80.8297 44.3075 78.631V49.7201C44.3075 48.7817 45.0695 48.0226 46.0058 48.0272V116.235C46.0058 118.862 48.1296 121 50.7603 121C53.3919 121 55.5157 118.862 55.5157 116.235C55.5157 115.573 55.5157 79.4557 55.5157 78.1427H57.4842V116.235C57.4842 118.856 59.6065 121 62.2388 121C64.8695 121 66.9934 118.862 66.9934 116.235C66.9934 112.512 66.9934 48.0272 66.9934 48.0272C67.9799 48.0333 68.7769 48.8366 68.7769 49.8254L68.7761 78.631C68.7761 80.8732 70.6274 82.6799 72.8814 82.5998V82.5998ZM56.4999 57.8576C53.9224 57.8576 51.8337 55.7634 51.8337 53.1808C51.8337 50.5975 53.9224 48.504 56.4999 48.504C59.0767 48.504 61.1662 50.5975 61.1662 53.1808C61.1662 55.7634 59.0767 57.8576 56.4999 57.8576Z" fill="#282828"/>
<path d="M56.5419 37.4612C61.0315 37.4612 64.7539 33.8151 64.7539 29.2306C64.7539 24.685 61.0772 21 56.5419 21C52.0065 21 48.3298 24.685 48.3298 29.2306C48.3298 33.8181 52.056 37.4612 56.5419 37.4612Z" fill="#282828"/>
<path d="M4.46154 25H2C0.89543 25 0 24.1046 0 23C0 21.8954 0.895429 21 2 21H19.1538C20.2584 21 21.1538 21.8954 21.1538 23C21.1538 24.1046 20.2584 25 19.1538 25H16.6923C14.4832 25 12.6923 26.7909 12.6923 29V113C12.6923 115.209 14.4832 117 16.6923 117H19.1538C20.2584 117 21.1538 117.895 21.1538 119C21.1538 120.105 20.2584 121 19.1538 121H8.46154H2C0.89543 121 0 120.105 0 119C0 117.895 0.895432 117 2 117H4.46154C6.67068 117 8.46154 115.209 8.46154 113V29C8.46154 26.7909 6.67068 25 4.46154 25Z" fill="#F32556"/>
<path d="M35 16.6923V19.1538C35 20.2584 34.1046 21.1538 33 21.1538C31.8954 21.1538 31 20.2584 31 19.1538V1.99996C31 0.895393 31.8954 -3.8147e-05 33 -3.8147e-05C34.1046 -3.8147e-05 35 0.895393 35 1.99996V4.4615C35 6.67064 36.7909 8.4615 39 8.4615L74 8.4615C76.2091 8.4615 78 6.67064 78 4.4615V1.99996C78 0.895391 78.8954 -3.8147e-05 80 -3.8147e-05C81.1046 -3.8147e-05 82 0.895391 82 1.99996V12.6923V19.1538C82 20.2584 81.1046 21.1538 80 21.1538C78.8954 21.1538 78 20.2584 78 19.1538V16.6923C78 14.4831 76.2091 12.6923 74 12.6923L39 12.6923C36.7909 12.6923 35 14.4831 35 16.6923Z" fill="#F32556"/>
</svg>
