<svg width="159" height="250" viewBox="0 0 159 250" fill="none" xmlns="http://www.w3.org/2000/svg">
<path fill-rule="evenodd" clip-rule="evenodd" d="M156.651 14.967L156.653 14.9641C156.662 14.9508 156.669 14.9377 156.675 14.9267L156.675 14.9263L156.678 14.9213C156.672 14.9322 156.664 14.9454 156.655 14.9608C159.311 10.3512 158 4.35732 153.494 1.52023C148.752 -1.46667 142.521 0.0973521 139.729 4.90197L117.239 43.6193C118.275 54.6685 112.114 64.6649 102.501 68.9946L101.393 70.902H78.6497C76.1949 70.902 73.7535 71.2625 71.4037 71.9701L42.37 80.7191L25.3126 58.3593C22.0148 54.0372 15.8368 53.2056 11.5148 56.5034C7.19274 59.8012 6.36113 65.9791 9.65894 70.3012L30.9106 98.1618C33.4188 101.45 37.7313 102.831 41.7024 101.578C43.4686 101.02 47.1079 99.9048 51.1055 98.6798L51.1061 98.6796L51.1094 98.6786C55.9395 97.1986 61.2919 95.5585 64.4952 94.5474V143.614L18.7608 232.794C15.524 239.104 18.5357 246.815 25.1943 249.273C30.7046 251.307 37.018 248.966 39.7836 243.576L86.2066 153.053L93.8665 152.97C96.9641 154.94 107.933 161.915 112.772 164.992L95.03 199.938C92.0774 205.757 94.3987 212.866 100.216 215.82C106.022 218.767 113.138 216.463 116.099 210.634L138.693 166.126C141.445 160.702 139.631 154.074 134.499 150.81C131.703 149.033 127.003 146.148 122.755 143.541L122.753 143.54C119.25 141.39 116.055 139.429 114.493 138.436V87.5493C114.493 87.5493 154.923 17.9444 156.651 14.967ZM89.5273 108.145C83.0862 108.145 77.8658 102.924 77.8658 96.4834C77.8658 90.0441 83.0862 84.8218 89.5273 84.8218C95.9684 84.8218 101.189 90.0461 101.189 96.4834C101.189 102.924 95.9684 108.145 89.5273 108.145ZM92.2018 65.8052C92.2207 65.8051 92.2397 65.8048 92.2587 65.8046L92.2604 65.8045C92.296 65.8041 92.3317 65.8036 92.3674 65.8036C103.302 65.6854 112.07 56.7265 111.952 45.7917C111.836 34.9312 102.993 26.207 92.1595 26.207C92.1232 26.207 92.087 26.2075 92.0508 26.208C92.0293 26.2083 92.0079 26.2085 91.9865 26.2087C91.9717 26.2089 91.9569 26.2089 91.942 26.2089C81.0072 26.3272 72.2391 35.286 72.3574 46.2189C72.4756 57.0794 81.3162 65.8055 92.1499 65.8055C92.1672 65.8055 92.1845 65.8054 92.2018 65.8052ZM57.8825 103.203V142.103L24.3456 207.907H5.39987C1.28571 207.907 -1.3121 203.484 0.688714 199.89L53.9 104.387L57.8825 103.203Z" fill="url(#paint0_linear)"/>
<path d="M95.4051 88.5V92.8921H88.0543C87.9654 92.8907 87.8772 92.9071 87.7947 92.9403C87.7194 92.9792 87.6517 93.0313 87.5949 93.0942C87.5432 93.1452 87.5011 93.2051 87.4708 93.2711C87.537 92.1585 87.9562 91.096 88.6676 90.238C89.379 89.38 90.3454 88.7712 91.4265 88.5H95.4051Z" fill="url(#paint1_linear)"/>
<path d="M91.5596 99.5743C91.4985 100.693 91.0805 101.763 90.367 102.626C89.6534 103.49 88.6818 104.102 87.5948 104.373H83.7999V99.9855H90.9348C91.0261 99.9873 91.1168 99.9701 91.2012 99.935C91.2814 99.9026 91.3541 99.8541 91.4149 99.7926C91.4766 99.7297 91.5257 99.6557 91.5596 99.5743Z" fill="url(#paint2_linear)"/>
<path d="M96 99.3102C96.0022 99.9873 95.867 100.658 95.6026 101.281C95.5474 101.407 95.49 101.532 95.4257 101.651C94.8796 102.681 93.9954 103.493 92.9218 103.948C92.2975 104.217 91.624 104.354 90.944 104.35H87.5948H87.6339C88.7106 104.074 89.6716 103.463 90.3774 102.604C91.0833 101.745 91.4973 100.684 91.5597 99.5744C91.6216 99.4085 91.6216 99.2257 91.5597 99.0598V99.046C91.5267 98.9662 91.4783 98.8936 91.4172 98.8324C91.3518 98.7684 91.2735 98.7191 91.1875 98.6877C91.1049 98.6552 91.0167 98.6396 90.9279 98.6418H88.0543C87.9088 98.6418 87.7664 98.6349 87.627 98.6211H87.6178C87.0902 98.58 86.5731 98.4511 86.0879 98.2398C84.8805 97.7178 83.9194 96.7526 83.4026 95.5429C83.1369 94.9178 83 94.2455 83 93.5663C83 92.887 83.1369 92.2148 83.4026 91.5896C83.9234 90.3854 84.8837 89.425 86.0879 88.9043C86.4396 88.75 86.8093 88.6404 87.1883 88.5781H87.2181H87.2296C87.5019 88.5295 87.7777 88.5034 88.0543 88.5H91.4264C90.3447 88.7678 89.3766 89.3738 88.6631 90.2299C87.9496 91.0859 87.5279 92.1473 87.4593 93.2596C87.4522 93.273 87.4461 93.2868 87.4409 93.301C87.4072 93.3809 87.39 93.4669 87.3904 93.5536C87.3884 93.6482 87.4064 93.7422 87.4432 93.8293C87.445 93.8397 87.4498 93.8493 87.457 93.8569C87.4871 93.9269 87.53 93.9908 87.5834 94.0452C87.6496 94.1082 87.7277 94.1574 87.8131 94.1899C87.8898 94.2215 87.9714 94.2393 88.0543 94.2428H90.9257C91.9234 94.2389 92.8999 94.5305 93.7322 95.0807C94.5645 95.6309 95.2153 96.4152 95.6026 97.3347C95.6707 97.492 95.7298 97.653 95.7794 97.8171C95.9271 98.301 96.0014 98.8043 96 99.3102Z" fill="url(#paint3_linear)"/>
<g opacity="0.16">
<g opacity="0.16">
<path opacity="0.16" d="M91.5596 99.5743C91.4985 100.693 91.0806 101.763 90.367 102.626C89.6534 103.49 88.6818 104.102 87.5948 104.373H86.5404C87.4301 103.956 88.2155 103.346 88.8394 102.587C89.4633 101.828 89.91 100.939 90.1469 99.9855H90.9348C91.0255 99.9886 91.1158 99.9713 91.1989 99.935C91.2798 99.9026 91.3533 99.8542 91.4149 99.7926C91.4766 99.7297 91.5257 99.6557 91.5596 99.5743Z" fill="black"/>
</g>
</g>
<g opacity="0.16">
<g opacity="0.16">
<path opacity="0.16" d="M92.3798 88.5C91.3989 89.2305 89.4073 90.9166 88.9065 92.8921H88.0543C87.9654 92.8907 87.8772 92.9071 87.7947 92.9403C87.7194 92.9792 87.6517 93.0313 87.5949 93.0942C87.5432 93.1452 87.5011 93.2051 87.4708 93.2711C87.537 92.1585 87.9562 91.096 88.6676 90.238C89.379 89.38 90.3454 88.7712 91.4265 88.5H92.3798Z" fill="black"/>
</g>
</g>
<g opacity="0.25">
<g opacity="0.25">
<path opacity="0.25" d="M95.4049 89.814V92.8921H89.2739C89.7839 92.8416 90.2961 92.8071 90.8061 92.7818C91.3161 92.7566 91.8306 92.7359 92.3406 92.729C92.8505 92.7221 93.3628 92.7152 93.875 92.7106C94.3345 92.7106 94.7939 92.7106 95.2533 92.7244C95.2533 92.5246 95.2533 92.3247 95.2694 92.1226C95.2694 91.8653 95.2878 91.6103 95.3038 91.353C95.3245 90.8408 95.359 90.3377 95.4049 89.814Z" fill="black"/>
</g>
</g>
<g opacity="0.7">
<g opacity="0.7">
<path opacity="0.7" d="M96 99.3102C96.0023 99.9873 95.8671 100.658 95.6026 101.281C95.5475 101.408 95.4901 101.532 95.4257 101.651C95.4418 101.605 95.4992 101.453 95.5865 101.224C95.7177 100.833 95.8048 100.428 95.8461 100.018C95.8718 99.7452 95.8779 99.4711 95.8645 99.1977C95.8485 98.8961 95.807 98.5964 95.7404 98.3018C95.7062 98.1464 95.6632 97.993 95.6118 97.8424C95.5544 97.6885 95.4947 97.5346 95.4349 97.383C95.3013 97.0793 95.1374 96.7899 94.9456 96.5192C94.7586 96.2439 94.543 95.989 94.3025 95.7589C94.0692 95.5372 93.8163 95.3373 93.5467 95.1617C93.2919 94.9964 93.0247 94.8512 92.7473 94.7275C92.4972 94.6221 92.2391 94.5368 91.9755 94.4725C91.5736 94.3724 91.1626 94.3131 90.7488 94.2956L90.2733 94.2428H90.9349C91.931 94.2408 92.9056 94.5332 93.7361 95.0833C94.5665 95.6334 95.2159 96.4167 95.6026 97.3347C95.6696 97.4922 95.7279 97.6532 95.7772 97.8171C95.9256 98.3009 96.0007 98.8042 96 99.3102Z" fill="white"/>
</g>
</g>
<g opacity="0.25">
<g opacity="0.25">
<path opacity="0.25" d="M87.0528 104.373H83.8V101.054C83.8414 101.332 83.8644 101.605 83.8919 101.883C83.9195 102.161 83.931 102.437 83.9425 102.712C83.954 102.988 83.9654 103.266 83.9746 103.544V104.192H84.6063C84.8774 104.192 85.1485 104.205 85.4195 104.224C85.9685 104.258 86.5106 104.297 87.0528 104.373Z" fill="black"/>
</g>
</g>
<g opacity="0.7">
<g opacity="0.7">
<path opacity="0.7" d="M87.6178 98.6073C87.0902 98.5662 86.5731 98.4374 86.0879 98.226C84.8831 97.7074 83.9223 96.7474 83.4026 95.543C83.1369 94.9178 83 94.2456 83 93.5663C83 92.8871 83.1369 92.2148 83.4026 91.5896C83.9234 90.3854 84.8837 89.4251 86.0879 88.9043C86.4396 88.75 86.8093 88.6404 87.1883 88.5781C86.455 88.7549 85.7682 89.0867 85.1738 89.551C84.5795 90.0154 84.0915 90.6016 83.7426 91.2703C83.3374 92.0437 83.1463 92.9113 83.189 93.7834C83.2043 94.2209 83.2816 94.654 83.4187 95.0698L83.5312 95.3914L83.5588 95.4695V95.4878C83.5599 95.4916 83.5599 95.4956 83.5588 95.4993L83.5772 95.5384L83.6438 95.6854C83.7308 95.8776 83.8314 96.0633 83.9447 96.2413C84.1581 96.581 84.4101 96.8947 84.6959 97.1762C84.9548 97.4295 85.2388 97.6558 85.5435 97.8516C85.8024 98.0168 86.0743 98.1605 86.3567 98.2811C86.5802 98.3752 86.8106 98.452 87.0458 98.5108C87.2346 98.5533 87.4255 98.5855 87.6178 98.6073V98.6073Z" fill="white"/>
</g>
</g>
<g opacity="0.7">
<g opacity="0.7">
<path opacity="0.7" d="M91.4263 88.5C90.3445 88.7686 89.3766 89.3751 88.6632 90.2315C87.9497 91.0879 87.528 92.1494 87.4592 93.2619C87.4517 93.2742 87.4455 93.2873 87.4408 93.301L87.4546 93.2573C87.4546 93.1195 87.4546 92.9817 87.4546 92.8415C87.4546 92.7014 87.4798 92.5636 87.4936 92.4212C87.5074 92.2788 87.5488 92.1455 87.574 92.0077C87.5993 91.8699 87.6567 91.7366 87.6958 91.6011C87.7348 91.4656 87.7991 91.3369 87.8543 91.2037C87.9094 91.0705 87.9829 90.951 88.0472 90.8247C88.1116 90.6983 88.1988 90.595 88.2769 90.4617C88.355 90.3285 88.4469 90.232 88.5342 90.1218C88.6215 90.0115 88.7272 89.9127 88.8237 89.8071C88.9201 89.7014 89.0304 89.6118 89.1384 89.5176L89.4737 89.258C89.5932 89.1799 89.7035 89.1064 89.8344 89.0283C89.9653 88.9502 90.0848 88.8997 90.2134 88.8377L90.6062 88.6861C90.744 88.647 90.8773 88.6057 91.0151 88.5712C91.1529 88.5368 91.2885 88.5207 91.4263 88.5Z" fill="white"/>
</g>
</g>
<g opacity="0.7">
<g opacity="0.7">
<path opacity="0.7" d="M91.5915 99.5721C91.5915 99.7145 91.5915 99.8546 91.5915 99.9947C91.5915 100.135 91.5662 100.277 91.5502 100.417C91.5341 100.558 91.4973 100.695 91.4652 100.835C91.433 100.976 91.3848 101.109 91.3457 101.244C91.3067 101.38 91.2401 101.511 91.1849 101.642C91.1298 101.773 91.0586 101.899 90.992 102.025C90.9254 102.152 90.8404 102.269 90.7623 102.391C90.6842 102.512 90.5923 102.62 90.505 102.733C90.4177 102.845 90.312 102.947 90.2155 103.052C90.1191 103.158 90.0088 103.25 89.9008 103.344L89.5609 103.606C89.4414 103.684 89.3312 103.762 89.2002 103.836L88.8212 104.033L88.4261 104.192L88.0195 104.311C87.9161 104.332 87.8128 104.352 87.7094 104.368H87.7324L87.6129 104.382V104.35H87.6543C88.7267 104.069 89.6824 103.456 90.3841 102.598C91.0858 101.74 91.4973 100.681 91.5594 99.5744V99.5744C91.5937 99.4914 91.6101 99.4022 91.6076 99.3125C91.6204 99.3992 91.6149 99.4876 91.5915 99.5721V99.5721Z" fill="white"/>
</g>
</g>
<defs>
<linearGradient id="paint0_linear" x1="79.0095" y1="0" x2="79.0095" y2="250" gradientUnits="userSpaceOnUse">
<stop stop-color="#F32556"/>
<stop offset="0.510417" stop-color="#FBBA00"/>
<stop offset="1" stop-color="#F92D00"/>
</linearGradient>
<linearGradient id="paint1_linear" x1="95.4096" y1="90.8798" x2="87.7855" y2="90.8798" gradientUnits="userSpaceOnUse">
<stop stop-color="#EE0979"/>
<stop offset="0.32" stop-color="#F32555"/>
<stop offset="1" stop-color="#FF6A00"/>
</linearGradient>
<linearGradient id="paint2_linear" x1="100.638" y1="228.227" x2="348.016" y2="228.227" gradientUnits="userSpaceOnUse">
<stop stop-color="#EE0979"/>
<stop offset="0.32" stop-color="#F32555"/>
<stop offset="1" stop-color="#FF6A00"/>
</linearGradient>
<linearGradient id="paint3_linear" x1="89.4991" y1="88.3714" x2="89.4991" y2="104.8" gradientUnits="userSpaceOnUse">
<stop stop-color="#FCC400"/>
<stop offset="0.16" stop-color="#FBC000"/>
<stop offset="0.31" stop-color="#FBB500"/>
<stop offset="0.45" stop-color="#FBA300"/>
<stop offset="0.58" stop-color="#FA8900"/>
<stop offset="0.71" stop-color="#FA6800"/>
<stop offset="0.84" stop-color="#F93F00"/>
<stop offset="0.97" stop-color="#F81000"/>
<stop offset="1" stop-color="#F80300"/>
</linearGradient>
</defs>
</svg>
