<svg width="154" height="300" viewBox="0 0 154 300" fill="none" xmlns="http://www.w3.org/2000/svg">
<path d="M83.3133 88V93.0678H74.8317C74.7291 93.0662 74.6273 93.0852 74.5322 93.1234C74.4453 93.1683 74.3671 93.2285 74.3016 93.301C74.2419 93.3598 74.1934 93.429 74.1584 93.5051C74.2348 92.2214 74.7185 90.9954 75.5394 90.0054C76.3602 89.0154 77.4753 88.3129 78.7226 88H83.3133Z" fill="url(#paint0_linear)"/>
<path d="M78.8765 100.778C78.8061 102.069 78.3238 103.303 77.5005 104.3C76.6771 105.296 75.556 106.003 74.3017 106.315H69.9231V101.253H78.1556C78.261 101.255 78.3657 101.235 78.4631 101.194C78.5556 101.157 78.6395 101.101 78.7096 101.03C78.7808 100.958 78.8375 100.872 78.8765 100.778Z" fill="url(#paint1_linear)"/>
<path d="M84 100.473C84.0026 101.255 83.8466 102.028 83.5414 102.747C83.4778 102.893 83.4116 103.036 83.3373 103.174C82.7072 104.363 81.687 105.299 80.4483 105.825C79.7279 106.136 78.9508 106.294 78.1662 106.289H74.3017H74.3468C75.5892 105.97 76.698 105.265 77.5124 104.274C78.3268 103.283 78.8046 102.059 78.8765 100.778C78.9481 100.587 78.9481 100.376 78.8765 100.184V100.169C78.8385 100.076 78.7826 99.9926 78.7122 99.922C78.6367 99.8482 78.5463 99.7913 78.4471 99.755C78.3518 99.7176 78.25 99.6996 78.1476 99.702H74.8318C74.664 99.702 74.4996 99.6941 74.3388 99.6782H74.3282C73.7194 99.6308 73.1228 99.4821 72.563 99.2382C71.1698 98.636 70.0608 97.5222 69.4646 96.1265C69.158 95.4052 69 94.6295 69 93.8457C69 93.062 69.158 92.2863 69.4646 91.5649C70.0654 90.1754 71.1735 89.0674 72.563 88.4665C72.9688 88.2885 73.3953 88.162 73.8326 88.0901H73.8671H73.8803C74.1945 88.0341 74.5127 88.004 74.8318 88H78.7228C77.4746 88.309 76.3576 89.0083 75.5343 89.996C74.7111 90.9838 74.2245 92.2084 74.1454 93.4919C74.1372 93.5073 74.1301 93.5232 74.1242 93.5396C74.0852 93.6318 74.0653 93.731 74.0658 93.8311C74.0635 93.9403 74.0843 94.0487 74.1268 94.1492C74.1288 94.1611 74.1344 94.1722 74.1427 94.181C74.1775 94.2618 74.2269 94.3355 74.2885 94.3983C74.3649 94.471 74.455 94.5278 74.5535 94.5653C74.642 94.6017 74.7362 94.6223 74.8318 94.6263H78.145C79.2962 94.6218 80.423 94.9582 81.3833 95.5931C82.3436 96.228 83.0946 97.1329 83.5414 98.1939C83.62 98.3754 83.6882 98.5612 83.7455 98.7505C83.9159 99.3088 84.0017 99.8896 84 100.473Z" fill="url(#paint2_linear)"/>
<g opacity="0.16">
<g opacity="0.16">
<path opacity="0.16" d="M78.8766 100.778C78.8061 102.069 78.3239 103.303 77.5005 104.3C76.6771 105.296 75.5561 106.003 74.3018 106.315H73.0852C74.1117 105.834 75.018 105.13 75.7379 104.254C76.4577 103.378 76.9732 102.353 77.2465 101.253H78.1556C78.2603 101.256 78.3645 101.236 78.4604 101.194C78.5538 101.157 78.6385 101.101 78.7096 101.03C78.7808 100.958 78.8375 100.872 78.8766 100.778Z" fill="black"/>
</g>
</g>
<g opacity="0.16">
<g opacity="0.16">
<path opacity="0.16" d="M79.8226 88C78.6908 88.8429 76.3928 90.7883 75.815 93.0678H74.8317C74.7291 93.0662 74.6273 93.0852 74.5322 93.1234C74.4453 93.1683 74.3671 93.2285 74.3016 93.301C74.2419 93.3598 74.1934 93.429 74.1584 93.5051C74.2348 92.2214 74.7185 90.9954 75.5394 90.0054C76.3602 89.0154 77.4753 88.3129 78.7226 88H79.8226Z" fill="black"/>
</g>
</g>
<g opacity="0.25">
<g opacity="0.25">
<path opacity="0.25" d="M83.3132 89.5161V93.0678H76.239C76.8274 93.0095 77.4185 92.9697 78.0069 92.9406C78.5953 92.9114 79.189 92.8876 79.7775 92.8796C80.3659 92.8717 80.9569 92.8637 81.548 92.8584C82.0781 92.8584 82.6082 92.8584 83.1383 92.8743C83.1383 92.6437 83.1383 92.4131 83.1569 92.1799C83.1569 91.883 83.1781 91.5888 83.1966 91.292C83.2205 90.7009 83.2602 90.1204 83.3132 89.5161Z" fill="black"/>
</g>
</g>
<g opacity="0.7">
<g opacity="0.7">
<path opacity="0.7" d="M84.0001 100.473C84.0027 101.255 83.8467 102.028 83.5415 102.748C83.4779 102.893 83.4117 103.036 83.3374 103.174C83.356 103.121 83.4223 102.946 83.523 102.681C83.6743 102.23 83.7748 101.763 83.8225 101.29C83.8521 100.975 83.8592 100.659 83.8437 100.344C83.8252 99.9955 83.7773 99.6497 83.7006 99.3098C83.661 99.1305 83.6115 98.9535 83.5521 98.7797C83.4859 98.6021 83.417 98.4245 83.348 98.2496C83.1939 97.8993 83.0047 97.5654 82.7835 97.253C82.5676 96.9353 82.3189 96.6412 82.0413 96.3757C81.7723 96.1199 81.4804 95.8892 81.1693 95.6866C80.8753 95.4959 80.567 95.3284 80.2469 95.1856C79.9584 95.064 79.6606 94.9656 79.3564 94.8914C78.8927 94.7759 78.4185 94.7075 77.941 94.6873L77.3923 94.6264H78.1557C79.3051 94.624 80.4296 94.9614 81.3878 95.5961C82.3461 96.2309 83.0954 97.1347 83.5415 98.1939C83.6188 98.3756 83.6861 98.5615 83.743 98.7506C83.9142 99.3088 84.0009 99.8895 84.0001 100.473Z" fill="white"/>
</g>
</g>
<g opacity="0.25">
<g opacity="0.25">
<path opacity="0.25" d="M73.6762 106.315H69.9231V102.485C69.9708 102.806 69.9973 103.121 70.0291 103.442C70.0609 103.763 70.0742 104.081 70.0874 104.399C70.1007 104.717 70.1139 105.038 70.1245 105.358V106.106H70.8534C71.1662 106.106 71.4789 106.122 71.7917 106.143C72.4252 106.183 73.0507 106.228 73.6762 106.315Z" fill="black"/>
</g>
</g>
<g opacity="0.7">
<g opacity="0.7">
<path opacity="0.7" d="M74.3282 99.6622C73.7194 99.6148 73.1228 99.4661 72.563 99.2222C71.1728 98.6238 70.0642 97.5162 69.4646 96.1264C69.158 95.4051 69 94.6294 69 93.8457C69 93.0619 69.158 92.2862 69.4646 91.5649C70.0654 90.1754 71.1735 89.0673 72.563 88.4665C72.9688 88.2884 73.3953 88.162 73.8326 88.0901C72.9866 88.2941 72.194 88.6769 71.5083 89.2127C70.8225 89.7485 70.2594 90.4249 69.8568 91.1965C69.3894 92.0889 69.1688 93.09 69.2181 94.0962C69.2357 94.601 69.325 95.1007 69.4831 95.5804L69.613 95.9515L69.6448 96.0416V96.0628C69.646 96.0672 69.646 96.0718 69.6448 96.0761L69.666 96.1211L69.7429 96.2908C69.8433 96.5125 69.9593 96.7269 70.0901 96.9322C70.3362 97.3241 70.6271 97.6862 70.9568 98.011C71.2555 98.3032 71.5832 98.5643 71.9348 98.7902C72.2335 98.9809 72.5473 99.1466 72.8731 99.2859C73.131 99.3944 73.3968 99.4831 73.6683 99.5509C73.8861 99.5999 74.1064 99.6371 74.3282 99.6622V99.6622Z" fill="white"/>
</g>
</g>
<g opacity="0.7">
<g opacity="0.7">
<path opacity="0.7" d="M78.7224 88C77.4742 88.3099 76.3574 89.0098 75.5342 89.9979C74.711 90.986 74.2244 92.2109 74.145 93.4945C74.1363 93.5087 74.1292 93.5239 74.1238 93.5396L74.1397 93.4892C74.1397 93.3302 74.1397 93.1712 74.1397 93.0095C74.1397 92.8478 74.1688 92.6888 74.1847 92.5244C74.2006 92.3601 74.2484 92.2064 74.2775 92.0473C74.3067 91.8883 74.3729 91.7346 74.418 91.5782C74.463 91.4218 74.5373 91.2734 74.6009 91.1197C74.6645 90.9659 74.7493 90.8281 74.8235 90.6823C74.8977 90.5365 74.9984 90.4173 75.0886 90.2635C75.1787 90.1098 75.2847 89.9985 75.3854 89.8713C75.4861 89.744 75.6081 89.6301 75.7194 89.5081C75.8307 89.3862 75.9579 89.2828 76.0825 89.1742L76.4695 88.8747C76.6073 88.7846 76.7345 88.6997 76.8856 88.6096C77.0367 88.5195 77.1745 88.4612 77.323 88.3896L77.7762 88.2147C77.9352 88.1696 78.0889 88.1219 78.248 88.0822C78.407 88.0424 78.5634 88.0239 78.7224 88Z" fill="white"/>
</g>
</g>
<g opacity="0.7">
<g opacity="0.7">
<path opacity="0.7" d="M78.9134 100.775C78.9134 100.94 78.9134 101.101 78.9134 101.263C78.9134 101.425 78.8843 101.589 78.8657 101.751C78.8472 101.913 78.8048 102.072 78.7677 102.233C78.7306 102.395 78.6749 102.549 78.6298 102.705C78.5848 102.861 78.5079 103.012 78.4443 103.164C78.3807 103.315 78.2985 103.46 78.2217 103.606C78.1448 103.752 78.0467 103.887 77.9566 104.028C77.8665 104.168 77.7605 104.293 77.6598 104.423C77.559 104.552 77.4371 104.669 77.3258 104.791C77.2145 104.913 77.0872 105.019 76.9627 105.128L76.5704 105.43C76.4326 105.52 76.3053 105.61 76.1543 105.695L75.7169 105.923L75.261 106.106L74.7919 106.243C74.6726 106.267 74.5533 106.291 74.4341 106.31H74.4606L74.3228 106.326V106.289H74.3705C75.6078 105.965 76.7107 105.257 77.5203 104.267C78.33 103.277 78.8047 102.055 78.8763 100.778V100.778C78.9159 100.682 78.9349 100.579 78.932 100.476C78.9467 100.576 78.9404 100.678 78.9134 100.775V100.775Z" fill="white"/>
</g>
</g>
<path fill-rule="evenodd" clip-rule="evenodd" d="M51.855 24.6918C51.855 38.4453 63.0473 49.3835 76.5468 49.3835C90.0348 49.3835 101.239 38.4544 101.239 24.6918C101.239 11.055 90.1836 0 76.5468 0C62.91 0 51.855 11.055 51.855 24.6918ZM27.4168 184.799C20.9577 184.573 15.9315 179.07 15.9315 172.609V85.3661V85.3066C16.0093 69.88 28.8152 57.2549 44.5646 57.2549H108.526C124.337 57.2549 137.083 69.9349 137.159 85.3066V85.3661V172.893C137.159 179.434 131.869 184.806 125.245 184.806C118.679 184.806 113.332 179.489 113.332 172.893V86.1603C113.332 83.3451 111.041 81.0677 108.226 81.0815V285.704C108.226 293.584 101.84 300 93.9298 300C86.0174 300 79.6316 293.587 79.6316 285.704V171.428H73.7127V285.704C73.7127 293.568 67.3315 300 59.4167 300C51.5066 300 45.1208 293.587 45.1208 285.704V81.0815C42.1545 81.0998 39.7581 83.5099 39.7581 86.4762L39.7604 172.893C39.7604 179.62 34.1939 185.04 27.4168 184.799ZM76.6721 110.573C84.4221 110.573 90.7026 104.29 90.7026 96.5424C90.7026 88.7925 84.4221 82.512 76.6721 82.512C68.9245 82.512 62.6417 88.7925 62.6417 96.5424C62.6417 104.29 68.9245 110.573 76.6721 110.573ZM153.236 257.043L139.414 188.075C135.699 191.544 130.718 193.673 125.246 193.673C122.353 193.673 119.597 193.078 117.093 192.007V263.635H147.832C151.311 263.635 153.92 260.454 153.236 257.043ZM13.9842 188.358L0.109421 257.59C-0.574936 261.001 2.03432 264.185 5.51332 264.185H36.2544V191.892C33.6818 193.034 30.8391 193.675 27.8476 193.675C22.5238 193.675 17.6647 191.661 13.9842 188.358Z" fill="url(#paint3_linear)"/>
<defs>
<linearGradient id="paint0_linear" x1="83.3186" y1="90.7459" x2="74.5216" y2="90.7459" gradientUnits="userSpaceOnUse">
<stop stop-color="#EE0979"/>
<stop offset="0.32" stop-color="#F32555"/>
<stop offset="1" stop-color="#FF6A00"/>
</linearGradient>
<linearGradient id="paint1_linear" x1="89.3521" y1="249.223" x2="374.788" y2="249.223" gradientUnits="userSpaceOnUse">
<stop stop-color="#EE0979"/>
<stop offset="0.32" stop-color="#F32555"/>
<stop offset="1" stop-color="#FF6A00"/>
</linearGradient>
<linearGradient id="paint2_linear" x1="76.499" y1="87.8516" x2="76.499" y2="106.808" gradientUnits="userSpaceOnUse">
<stop stop-color="#FCC400"/>
<stop offset="0.16" stop-color="#FBC000"/>
<stop offset="0.31" stop-color="#FBB500"/>
<stop offset="0.45" stop-color="#FBA300"/>
<stop offset="0.58" stop-color="#FA8900"/>
<stop offset="0.71" stop-color="#FA6800"/>
<stop offset="0.84" stop-color="#F93F00"/>
<stop offset="0.97" stop-color="#F81000"/>
<stop offset="1" stop-color="#F80300"/>
</linearGradient>
<linearGradient id="paint3_linear" x1="153.345" y1="150" x2="0.345213" y2="150" gradientUnits="userSpaceOnUse">
<stop stop-color="#C72400"/>
<stop offset="0.503002" stop-color="#F92D00"/>
<stop offset="0.503002" stop-color="#29BB89"/>
<stop offset="1" stop-color="#289672"/>
</linearGradient>
</defs>
</svg>
